<svg xmlns="http://www.w3.org/2000/svg" style="display: none;">
    <symbol id="icon-book" viewBox="0 0 24 24">
        <g>
            <g class="nc-icon-wrapper">
                <path fill="currentColor"
                    d="M23.607,1.205c-0.248-0.188-0.568-0.25-0.87-0.17L12,3.963L1.263,1.035c-0.301-0.08-0.622-0.019-0.87,0.17 C0.146,1.395,0,1.688,0,2v17c0,0.451,0.302,0.846,0.737,0.965l11,3C11.823,22.988,11.912,23,12,23s0.177-0.012,0.263-0.035l11-3 C23.698,19.846,24,19.451,24,19V2C24,1.688,23.854,1.395,23.607,1.205z M9.702,18.264l-5.93-1.617l0.526-1.93l5.93,1.617 L9.702,18.264z M9.702,13.773l-5.93-1.617l0.526-1.93l5.93,1.617L9.702,13.773z M9.702,9.556l-5.93-1.617l0.526-1.93l5.93,1.617 L9.702,9.556z M14.298,18.264l-0.526-1.93l5.93-1.617l0.526,1.93L14.298,18.264z M14.298,13.773l-0.526-1.93l5.93-1.617l0.526,1.93 L14.298,13.773z M14.298,9.556l-0.526-1.93l5.93-1.617l0.526,1.93L14.298,9.556z" />
            </g>
        </g>
    </symbol>
    <symbol id="icon-arrow-right" viewBox="0 0 24 24">
        <g>
            <g class="nc-icon-wrapper">
                <path fill="currentColor"
                    d="M22.707,11.293L15,3.586L13.586,5l6,6H2c-0.553,0-1,0.448-1,1s0.447,1,1,1h17.586l-6,6L15,20.414 l7.707-7.707C23.098,12.316,23.098,11.684,22.707,11.293z" />
            </g>
        </g>
    </symbol>
    <symbol id="icon-phone" viewBox="0 0 24 24">
        <g>
            <g class="nc-icon-wrapper">
                <path data-color="color-2"
                    d="M20,0H4A4,4,0,0,0,0,4V6A1,1,0,0,0,1,7H6A1,1,0,0,0,7,6V4H17V6a1,1,0,0,0,1,1h5a1,1,0,0,0,1-1V4A4,4,0,0,0,20,0Z" />
                <path
                    d="M22.759,16.35l-6-7A1,1,0,0,0,16,9H8a1,1,0,0,0-.759.35l-6,7A.994.994,0,0,0,1,17v5a1,1,0,0,0,1,1H22a1,1,0,0,0,1-1V17A.994.994,0,0,0,22.759,16.35ZM12,19a3,3,0,1,1,3-3A3,3,0,0,1,12,19Z"
                    fill="currentColor" />
            </g>
        </g>
    </symbol>
    <symbol id="icon-crowd" viewBox="0 0 24 24">
        <g>
            <g class="nc-icon-wrapper">
                <path fill="currentColor"
                    d="M12,6L12,6c-1.657,0-3-1.343-3-3v0c0-1.657,1.343-3,3-3h0c1.657,0,3,1.343,3,3v0C15,4.657,13.657,6,12,6z" />
                <path data-color="color-2"
                    d="M4,19v-8c0-1.13,0.391-2.162,1.026-3H2c-1.105,0-2,0.895-2,2v6h2v5c0,0.552,0.448,1,1,1h2 c0.552,0,1-0.448,1-1v-2H4z" />
                <path fill="currentColor"
                    d="M14,24h-4c-0.552,0-1-0.448-1-1v-6H6v-6c0-1.657,1.343-3,3-3h6c1.657,0,3,1.343,3,3v6h-3v6 C15,23.552,14.552,24,14,24z" />
                <path data-color="color-2"
                    d="M4,7L4,7C2.895,7,2,6.105,2,5v0c0-1.105,0.895-2,2-2h0c1.105,0,2,0.895,2,2v0 C6,6.105,5.105,7,4,7z" />
                <path data-color="color-2"
                    d="M20,19v-8c0-1.13-0.391-2.162-1.026-3H22c1.105,0,2,0.895,2,2v6h-2v5c0,0.552-0.448,1-1,1h-2 c-0.552,0-1-0.448-1-1v-2H20z" />
                <path data-color="color-2"
                    d="M20,7L20,7c1.105,0,2-0.895,2-2v0c0-1.105-0.895-2-2-2h0c-1.105,0-2,0.895-2,2v0 C18,6.105,18.895,7,20,7z" />
            </g>
        </g>
    </symbol>
    <symbol id="icon-office" viewBox="0 0 24 24">
        <g>
            <g class="nc-icon-wrapper">
                <path data-color="color-2" d="M7,10H5V1c0-0.553,0.447-1,1-1h12c0.553,0,1,0.447,1,1v6h-2V2H7V10z" />
                <path fill="currentColor"
                    d="M23,8h-9c-0.553,0-1,0.447-1,1v13h-2v-9c0-0.553-0.447-1-1-1H1c-0.553,0-1,0.447-1,1v10c0,0.553,0.447,1,1,1 h22c0.553,0,1-0.447,1-1V9C24,8.447,23.553,8,23,8z M7,21H4v-2h3V21z M7,17H4v-2h3V17z M20,21h-3v-2h3V21z M20,17h-3v-2h3V17z M20,13h-3v-2h3V13z" />
            </g>
        </g>
    </symbol>
</svg>